<?xml version="1.0" standalone="no"?>
<!DOCTYPE svg PUBLIC "-//W3C//DTD SVG 20010904//EN"
 "http://www.w3.org/TR/2001/REC-SVG-20010904/DTD/svg10.dtd">
<svg version="1.0" xmlns="http://www.w3.org/2000/svg"
 width="864.000000pt" height="864.000000pt" viewBox="0 0 864.000000 864.000000"
 preserveAspectRatio="xMidYMid meet">
<metadata>
Created by potrace 1.14, written by Peter Selinger 2001-2017
</metadata>
<g transform="translate(0.000000,864.000000) scale(0.100000,-0.100000)"
fill="#000000" stroke="none">
<path d="M4168 8565 c-1 -1 -50 -6 -108 -10 -58 -3 -118 -9 -135 -11 -16 -3
-48 -7 -69 -9 -21 -3 -57 -7 -80 -10 -38 -5 -52 -8 -116 -20 -14 -3 -38 -8
-55 -10 -207 -36 -517 -124 -736 -208 -221 -85 -510 -229 -704 -351 -60 -38
-263 -174 -279 -187 -6 -5 -47 -37 -90 -71 -76 -58 -90 -70 -139 -111 -127
-107 -331 -306 -422 -411 -27 -32 -59 -68 -70 -80 -12 -11 -54 -64 -95 -116
-41 -52 -77 -97 -80 -100 -6 -6 -52 -73 -140 -205 -150 -225 -301 -513 -386
-735 -14 -36 -31 -78 -39 -95 -17 -36 -102 -289 -109 -325 -3 -14 -10 -41 -16
-60 -11 -38 -59 -239 -66 -280 -3 -14 -9 -47 -14 -75 -11 -55 -16 -87 -25
-155 -3 -25 -8 -56 -10 -70 -5 -29 -12 -94 -22 -205 -14 -160 -6 -699 12 -794
3 -17 7 -51 20 -158 2 -23 9 -61 14 -85 5 -24 13 -63 16 -88 7 -51 59 -277 75
-330 6 -19 13 -45 16 -58 7 -35 93 -287 126 -372 55 -140 71 -175 153 -340 55
-109 136 -256 210 -378 33 -55 111 -168 117 -170 5 -2 8 -10 8 -18 0 -8 4 -14
8 -14 4 0 16 -13 25 -30 10 -16 23 -35 30 -42 7 -7 28 -34 47 -61 18 -26 37
-47 41 -47 4 0 10 -8 13 -17 3 -10 16 -29 29 -43 12 -14 61 -68 107 -120 176
-198 380 -386 585 -542 72 -54 135 -102 141 -107 10 -8 140 -93 224 -146 361
-229 890 -441 1320 -530 128 -26 269 -50 360 -60 25 -3 56 -7 70 -10 144 -26
774 -26 920 0 8 1 44 6 80 9 36 4 88 11 115 16 49 9 73 13 145 25 30 5 307 70
335 78 6 2 30 9 55 16 95 27 316 102 385 131 245 103 493 228 635 318 124 79
250 163 262 175 7 7 27 21 43 31 17 11 73 54 125 95 265 210 531 480 721 731
35 47 66 87 69 90 10 9 120 169 120 175 0 3 15 26 34 52 72 103 215 367 297
548 135 302 260 713 303 999 4 21 8 41 10 45 2 3 7 33 11 66 6 59 10 92 20
160 25 178 26 792 1 920 -2 11 -7 49 -11 85 -4 36 -9 74 -11 85 -2 10 -6 37
-10 60 -6 41 -50 263 -60 300 -3 11 -7 31 -10 45 -13 66 -112 386 -133 435 -5
11 -33 79 -61 150 -48 119 -168 371 -218 455 -11 19 -37 63 -56 97 -183 322
-509 719 -823 1002 -102 92 -310 259 -340 273 -13 6 -23 15 -23 20 0 4 -6 8
-14 8 -8 0 -16 4 -18 8 -5 11 -190 132 -304 198 -126 73 -287 156 -389 201
-44 19 -93 41 -110 48 -16 7 -73 29 -125 48 -52 19 -104 38 -115 43 -11 4 -22
8 -25 9 -3 0 -34 10 -70 22 -36 11 -88 28 -116 36 -75 23 -332 85 -379 92 -22
3 -65 10 -95 15 -95 16 -196 29 -350 45 -60 7 -576 15 -582 10z"/>
</g>
</svg>
